HIERARCHY
ROOT Hips
{
	OFFSET 0.000000 100.481300 0.000000
	CHANNELS 6 Xposition Yposition Zposition Xrotation Yrotation Zrotation 
	JOINT Spine
	{
		OFFSET -0.279200 12.230698 -2.892100
		CHANNELS 3 Xrotation Yrotation Zrotation
		JOINT Spine1
		{
			OFFSET -0.232667 10.192268 -1.242267
			CHANNELS 3 Xrotation Yrotation Zrotation
			JOINT Spine1_split
			{
				OFFSET -0.232667 10.192268 -1.242267
				CHANNELS 3 Xrotation Yrotation Zrotation
				JOINT Spine2
				{
					OFFSET -0.232667 10.192268 -1.242267
					CHANNELS 3 Xrotation Yrotation Zrotation
					JOINT Neck
					{
						OFFSET -0.418800 17.814194 8.416900
						CHANNELS 3 Xrotation Yrotation Zrotation
						JOINT Head
						{
							OFFSET 0.000000 7.031097 3.806800
							CHANNELS 3 Xrotation Yrotation Zrotation
							JOINT HeadTop_End
							{
								OFFSET 0.000000 24.646606 12.978600
								CHANNELS 3 Xrotation Yrotation Zrotation
								End Site
								{
									OFFSET 0.000000 0.000000 0.000000
								}
							}
						}
					}
					JOINT LeftShoulder
					{
						OFFSET 8.476499 7.247704 -3.868750
						CHANNELS 3 Xrotation Yrotation Zrotation
						JOINT LeftShoulder_split
						{
							OFFSET 8.476499 7.247704 -3.868750
							CHANNELS 3 Xrotation Yrotation Zrotation
							JOINT LeftArm
							{
								OFFSET 9.308998 -2.777710 0.208600
								CHANNELS 3 Xrotation Yrotation Zrotation
								JOINT LeftForeArm
								{
									OFFSET 29.972298 0.000000 0.000000
									CHANNELS 3 Xrotation Yrotation Zrotation
									JOINT LeftHand
									{
										OFFSET 26.026505 0.000000 0.000000
										CHANNELS 3 Xrotation Yrotation Zrotation
										JOINT LeftHandThumb1
										{
											OFFSET 12.240501 -7.147949 9.207150
											CHANNELS 3 Xrotation Yrotation Zrotation
											JOINT LeftHandThumb2
											{
												OFFSET 4.138618 -2.389435 2.389433
												CHANNELS 3 Xrotation Yrotation Zrotation
												JOINT LeftHandThumb3
												{
													OFFSET 2.726913 -1.574387 1.574386
													CHANNELS 3 Xrotation Yrotation Zrotation
													JOINT LeftHandThumb4
													{
														OFFSET 3.941010 -2.275345 2.275342
														CHANNELS 3 Xrotation Yrotation Zrotation
														End Site
														{
															OFFSET 0.000000 0.000000 0.000000
														}
													}
												}
											}
										}
										JOINT LeftHandIndex1
										{
											OFFSET 24.424698 -1.985611 5.953459
											CHANNELS 3 Xrotation Yrotation Zrotation
											JOINT LeftHandIndex2
											{
												OFFSET 6.426697 0.000000 0.000000
												CHANNELS 3 Xrotation Yrotation Zrotation
												JOINT LeftHandIndex3
												{
													OFFSET 5.337898 0.000000 0.000000
													CHANNELS 3 Xrotation Yrotation Zrotation
													JOINT LeftHandIndex4
													{
														OFFSET 4.409401 0.000000 0.000000
														CHANNELS 3 Xrotation Yrotation Zrotation
														End Site
														{
															OFFSET 0.000000 0.000000 0.000000
														}
													}
												}
											}
										}
										JOINT LeftHandMiddle1
										{
											OFFSET 23.810104 0.000000 0.000000
											CHANNELS 3 Xrotation Yrotation Zrotation
											JOINT LeftHandMiddle2
											{
												OFFSET 7.176498 0.000000 0.000000
												CHANNELS 3 Xrotation Yrotation Zrotation
												JOINT LeftHandMiddle3
												{
													OFFSET 6.774902 0.000000 0.000000
													CHANNELS 3 Xrotation Yrotation Zrotation
													JOINT LeftHandMiddle4
													{
														OFFSET 5.403328 0.000000 0.000000
														CHANNELS 3 Xrotation Yrotation Zrotation
														End Site
														{
															OFFSET 0.000000 0.000000 0.000000
														}
													}
												}
											}
										}
										JOINT LeftHandRing1
										{
											OFFSET 22.908401 -0.839279 -6.020567
											CHANNELS 3 Xrotation Yrotation Zrotation
											JOINT LeftHandRing2
											{
												OFFSET 6.337502 0.000000 0.000000
												CHANNELS 3 Xrotation Yrotation Zrotation
												JOINT LeftHandRing3
												{
													OFFSET 5.779297 0.000000 0.000000
													CHANNELS 3 Xrotation Yrotation Zrotation
													JOINT LeftHandRing4
													{
														OFFSET 4.965698 0.000000 0.000000
														CHANNELS 3 Xrotation Yrotation Zrotation
														End Site
														{
															OFFSET 0.000000 0.000000 0.000000
														}
													}
												}
											}
										}
										JOINT LeftHandPinky1
										{
											OFFSET 20.037003 -1.530319 -10.950146
											CHANNELS 3 Xrotation Yrotation Zrotation
											JOINT LeftHandPinky2
											{
												OFFSET 5.254700 0.000000 0.000000
												CHANNELS 3 Xrotation Yrotation Zrotation
												JOINT LeftHandPinky3
												{
													OFFSET 4.810204 0.000000 0.000000
													CHANNELS 3 Xrotation Yrotation Zrotation
													JOINT LeftHandPinky4
													{
														OFFSET 3.647202 0.000000 0.000000
														CHANNELS 3 Xrotation Yrotation Zrotation
														End Site
														{
															OFFSET 0.000000 0.000000 0.000000
														}
													}
												}
											}
										}
									}
								}
							}
						}
					}
					JOINT RightShoulder
					{
						OFFSET -7.570500 7.247704 -3.868750
						CHANNELS 3 Xrotation Yrotation Zrotation
						JOINT RightShoulder_split
						{
							OFFSET -7.570500 7.247704 -3.868750
							CHANNELS 3 Xrotation Yrotation Zrotation
							JOINT RightArm
							{
								OFFSET -9.308998 -2.777710 0.208500
								CHANNELS 3 Xrotation Yrotation Zrotation
								JOINT RightForeArm
								{
									OFFSET -29.972300 0.000000 0.000000
									CHANNELS 3 Xrotation Yrotation Zrotation
									JOINT RightHand
									{
										OFFSET -26.026505 0.000000 0.000000
										CHANNELS 3 Xrotation Yrotation Zrotation
										JOINT RightHandThumb1
										{
											OFFSET -12.240601 -7.148026 9.207092
											CHANNELS 3 Xrotation Yrotation Zrotation
											JOINT RightHandThumb2
											{
												OFFSET -4.138618 -2.389435 2.389433
												CHANNELS 3 Xrotation Yrotation Zrotation
												JOINT RightHandThumb3
												{
													OFFSET -2.726974 -1.574417 1.574421
													CHANNELS 3 Xrotation Yrotation Zrotation
													JOINT RightHandThumb4
													{
														OFFSET -3.941010 -2.275345 2.275343
														CHANNELS 3 Xrotation Yrotation Zrotation
														End Site
														{
															OFFSET 0.000000 0.000000 0.000000
														}
													}
												}
											}
										}
										JOINT RightHandIndex1
										{
											OFFSET -24.424698 -1.985657 5.953444
											CHANNELS 3 Xrotation Yrotation Zrotation
											JOINT RightHandIndex2
											{
												OFFSET -6.426697 0.000000 0.000000
												CHANNELS 3 Xrotation Yrotation Zrotation
												JOINT RightHandIndex3
												{
													OFFSET -5.337898 0.000000 0.000000
													CHANNELS 3 Xrotation Yrotation Zrotation
													JOINT RightHandIndex4
													{
														OFFSET -4.409401 0.000000 0.000000
														CHANNELS 3 Xrotation Yrotation Zrotation
														End Site
														{
															OFFSET 0.000000 0.000000 0.000000
														}
													}
												}
											}
										}
										JOINT RightHandMiddle1
										{
											OFFSET -23.810097 0.000000 0.000000
											CHANNELS 3 Xrotation Yrotation Zrotation
											JOINT RightHandMiddle2
											{
												OFFSET -7.176498 0.000000 0.000000
												CHANNELS 3 Xrotation Yrotation Zrotation
												JOINT RightHandMiddle3
												{
													OFFSET -6.774902 0.000000 0.000000
													CHANNELS 3 Xrotation Yrotation Zrotation
													JOINT RightHandMiddle4
													{
														OFFSET -5.403328 0.000000 0.000000
														CHANNELS 3 Xrotation Yrotation Zrotation
														End Site
														{
															OFFSET 0.000000 0.000000 0.000000
														}
													}
												}
											}
										}
										JOINT RightHandRing1
										{
											OFFSET -22.908302 -0.839325 -6.020576
											CHANNELS 3 Xrotation Yrotation Zrotation
											JOINT RightHandRing2
											{
												OFFSET -6.337502 0.000000 0.000000
												CHANNELS 3 Xrotation Yrotation Zrotation
												JOINT RightHandRing3
												{
													OFFSET -5.779297 0.000000 0.000000
													CHANNELS 3 Xrotation Yrotation Zrotation
													JOINT RightHandRing4
													{
														OFFSET -4.965698 0.000000 0.000000
														CHANNELS 3 Xrotation Yrotation Zrotation
														End Site
														{
															OFFSET 0.000000 0.000000 0.000000
														}
													}
												}
											}
										}
										JOINT RightHandPinky1
										{
											OFFSET -20.037003 -1.530334 -10.950259
											CHANNELS 3 Xrotation Yrotation Zrotation
											JOINT RightHandPinky2
											{
												OFFSET -5.254700 0.000000 0.000000
												CHANNELS 3 Xrotation Yrotation Zrotation
												JOINT RightHandPinky3
												{
													OFFSET -4.810204 0.000000 0.000000
													CHANNELS 3 Xrotation Yrotation Zrotation
													JOINT RightHandPinky4
													{
														OFFSET -3.647202 0.000000 0.000000
														CHANNELS 3 Xrotation Yrotation Zrotation
														End Site
														{
															OFFSET 0.000000 0.000000 0.000000
														}
													}
												}
											}
										}
									}
								}
							}
						}
					}
				}
			}
		}
	}
	JOINT LeftUpLeg
	{
		OFFSET 15.427100 -6.655098 0.678600
		CHANNELS 3 Xrotation Yrotation Zrotation
		JOINT LeftLeg
		{
			OFFSET 4.081073 -39.591068 13.024000
			CHANNELS 3 Xrotation Yrotation Zrotation
			JOINT LeftFoot
			{
				OFFSET -4.081074 -37.707932 -15.979700
				CHANNELS 3 Xrotation Yrotation Zrotation
				JOINT LeftToeBase
				{
					OFFSET 5.346399 -15.068900 20.645000
					CHANNELS 3 Xrotation Yrotation Zrotation
					JOINT LeftToe_End
					{
						OFFSET 2.754700 0.931300 11.300900
						CHANNELS 3 Xrotation Yrotation Zrotation
						End Site
						{
							OFFSET 0.000000 0.000000 0.000000
						}
					}
				}
			}
		}
	}
	JOINT RightUpLeg
	{
		OFFSET -15.569500 -6.655098 0.678600
		CHANNELS 3 Xrotation Yrotation Zrotation
		JOINT RightLeg
		{
			OFFSET -4.081825 -39.591045 13.023800
			CHANNELS 3 Xrotation Yrotation Zrotation
			JOINT RightFoot
			{
				OFFSET 4.081824 -37.707954 -15.979600
				CHANNELS 3 Xrotation Yrotation Zrotation
				JOINT RightToeBase
				{
					OFFSET -5.346400 -15.068900 20.645000
					CHANNELS 3 Xrotation Yrotation Zrotation
					JOINT RightToe_End
					{
						OFFSET -2.754700 0.931300 11.300900
						CHANNELS 3 Xrotation Yrotation Zrotation
						End Site
						{
							OFFSET 0.000000 0.000000 0.000000
						}
					}
				}
			}
		}
	}
}
MOTION
Frames: 4
Frame Time: 0.016667
-1.123997 40.519241 72.991364 20.709033 -22.399580 -7.307925 5.386879 -1.303203 2.583940 -5.387902 1.463343 2.228127 0.000000 0.000000 0.000000 -5.408686 1.438962 2.129569 -64.248694 1.118116 14.686597 13.384904 14.022324 -18.292368 -0.000002 -0.000001 -0.000000 -18.927009 2.423269 -16.209301 0.000000 0.000000 0.000000 6.399252 13.475589 -49.024045 73.253280 -19.968939 30.111370 -15.141011 22.562562 -4.718123 -0.610183 -6.200718 8.854777 3.159786 21.613961 -1.887046 1.442465 2.915091 3.009411 0.000000 -0.000000 -0.000003 13.340414 -1.006137 10.837318 -0.167764 0.303304 -30.950558 -0.143982 0.303742 -32.101268 0.000000 -0.000001 0.000000 8.497917 -0.331011 -0.760248 0.230677 0.660650 -29.746833 0.443140 0.213125 -44.201972 -0.000001 -0.000001 0.000002 6.113365 3.149175 -16.056031 0.047041 0.321373 -29.970419 0.407231 0.819046 -41.985586 0.000003 0.000002 -0.000000 -5.635378 7.708979 -13.723661 0.223791 0.276087 -46.433303 0.260506 0.249036 -46.131808 -0.000000 -0.000003 -0.000002 -18.645067 3.158384 16.723944 0.000000 0.000000 0.000000 7.365362 -4.012501 58.411675 156.201918 144.055793 -156.460714 58.447138 -8.915760 -6.382680 0.630120 8.367621 -11.244497 -0.724210 -13.326703 3.592253 2.095409 -8.839550 -7.437886 0.000001 0.000000 -0.000001 19.441946 11.173352 -14.416332 -0.119647 -0.321785 16.959150 -0.093991 -0.286867 22.180110 0.000003 -0.000001 -0.000001 4.337929 2.446803 -5.888751 0.343353 -0.457182 25.813798 0.461078 0.156919 37.968438 0.000004 0.000001 0.000001 -6.996707 -10.686225 4.645079 0.112037 -0.082039 25.079422 0.440448 -0.472348 32.188489 -0.000001 -0.000000 0.000001 -19.430157 -20.234229 4.912568 0.220286 -0.081672 35.768119 0.256251 -0.044082 35.395178 0.000000 -0.000000 -0.000004 2.843879 6.046318 -1.028919 87.247826 -12.264139 -1.159461 25.187538 -4.719719 -25.896819 -0.676335 0.771630 -0.079995 0.000002 -0.000001 -0.000000 0.740802 11.290112 -5.991105 63.749748 10.548205 -14.415312 47.532209 7.773201 21.172558 13.783801 -1.925722 -2.028554 -0.000000 -0.000000 0.000001 
-0.992561 40.517052 74.150352 21.747220 -22.597995 -7.286475 5.341337 -1.260498 2.650379 -5.487567 1.423598 2.351741 0.000000 0.000000 0.000000 -5.507080 1.408920 2.254502 -65.359576 0.986971 14.866096 13.903063 14.117404 -18.447578 -0.000003 0.000000 -0.000000 -19.123845 2.643941 -15.817979 0.000000 0.000000 0.000000 8.811191 13.503263 -48.194757 72.720102 -20.634408 30.098690 -17.435815 22.649363 -4.324294 -0.741605 -6.712991 8.749663 2.927761 21.139820 -1.929419 1.258427 2.425049 2.900826 -0.000002 0.000003 0.000002 13.336285 -1.001485 12.126836 -0.169180 0.302480 -29.660974 -0.148756 0.304898 -30.811622 0.000001 -0.000002 0.000003 8.519024 -0.343219 0.529216 0.223461 0.656154 -28.457164 0.435289 0.210433 -42.912354 0.000000 -0.000002 0.000001 6.127083 3.134686 -14.767287 0.046571 0.312734 -28.680876 0.394217 0.819613 -40.695882 -0.000002 -0.000001 0.000001 -5.629747 7.701562 -12.434837 0.218856 0.271842 -45.143732 0.254455 0.245879 -44.842179 -0.000000 -0.000001 0.000001 -18.793158 2.934421 16.971143 0.000000 0.000000 0.000000 7.755220 -2.903527 58.461303 155.010105 141.216251 -155.160615 55.970228 -10.115517 -6.424042 0.621909 8.403533 -11.236675 -0.945185 -12.892613 3.661378 1.958189 -8.371722 -7.350296 -0.000001 -0.000000 0.000002 19.440149 11.172239 -15.590170 -0.120691 -0.320694 15.784922 -0.098450 -0.287083 21.005936 0.000002 -0.000001 -0.000000 4.357211 2.457271 -7.063562 0.337128 -0.452619 24.639607 0.454219 0.160134 36.794311 -0.000000 -0.000000 -0.000001 -6.986748 -10.676687 3.472830 0.112282 -0.074158 23.905268 0.428666 -0.470819 31.014335 0.000002 -0.000000 0.000000 -19.426354 -20.229972 3.739707 0.216543 -0.077076 34.593897 0.251401 -0.040251 34.221058 0.000000 -0.000000 0.000001 3.167971 5.215612 -1.445434 85.806355 -12.003442 -1.080664 25.505484 -4.811279 -26.001815 -0.846349 0.693701 -0.294551 0.000001 -0.000001 -0.000000 0.775804 10.708030 -5.766180 63.271239 10.895327 -14.230837 46.812713 7.697854 21.225351 14.199399 -2.844926 -2.132506 0.000002 -0.000000 0.000001 
-0.901230 40.480415 75.238297 22.833923 -22.739751 -7.223827 5.302893 -1.195859 2.693192 -5.579764 1.386648 2.467673 0.000000 0.000000 0.000000 -5.597968 1.382293 2.371569 -66.531746 0.851079 14.977239 14.412287 14.182148 -18.577611 -0.000001 0.000001 -0.000000 -19.324740 2.867704 -15.372842 0.000000 0.000000 0.000000 11.222558 12.997944 -47.136092 70.495858 -22.628968 28.974455 -19.002116 22.383119 -3.511828 -0.855974 -7.156652 8.657862 2.728071 20.728661 -1.967466 1.098270 2.000875 2.805639 0.000004 0.000001 0.000002 13.332682 -0.997557 13.243812 -0.170400 0.301690 -28.543893 -0.152920 0.305681 -29.694514 -0.000000 0.000001 -0.000002 8.537473 -0.353296 1.646231 0.217329 0.652120 -27.340043 0.428464 0.207885 -41.795314 -0.000000 -0.000001 -0.000000 6.139193 3.122434 -13.651067 0.046417 0.305288 -27.563778 0.382879 0.819806 -39.578699 0.000003 -0.000002 -0.000000 -5.624721 7.695239 -11.318493 0.214617 0.268146 -44.026617 0.249314 0.243022 -43.725102 0.000001 -0.000001 -0.000001 -18.954774 2.720319 17.238103 0.000000 0.000000 0.000000 8.007427 -1.543118 58.368993 156.553222 137.723579 -156.028869 51.277556 -11.257140 -6.118205 0.614068 8.437613 -11.229184 -1.155314 -12.479948 3.728707 1.827053 -7.927018 -7.266433 0.000002 0.000003 0.000001 19.438409 11.171132 -16.706480 -0.121719 -0.319664 14.668265 -0.102687 -0.287247 19.889262 0.000000 -0.000002 -0.000000 4.375716 2.466755 -8.180839 0.331314 -0.448181 23.522972 0.447714 0.163357 35.677650 -0.000002 0.000000 0.000000 -6.977126 -10.667860 2.358078 0.112695 -0.066688 22.788651 0.417476 -0.469140 29.897678 -0.000000 -0.000000 0.000001 -19.422674 -20.226027 2.624334 0.213068 -0.072653 33.477301 0.246862 -0.036530 33.104373 0.000001 0.000000 0.000001 3.362404 4.155302 -1.717138 84.491612 -11.446274 -1.021923 25.685027 -4.841962 -26.131218 -0.743905 0.262950 -0.424647 -0.000001 -0.000000 -0.000001 0.959538 10.266718 -5.694923 62.510567 11.006076 -14.003988 47.169539 7.873054 21.399995 13.689331 -3.426833 -2.677839 0.000001 0.000000 0.000001 
-0.820357 40.411842 76.397743 23.969651 -22.810019 -7.137981 5.273701 -1.118689 2.719471 -5.663058 1.353727 2.575409 0.000000 0.000000 0.000000 -5.679917 1.360143 2.479900 -67.748469 0.721240 15.041649 14.908428 14.198105 -18.680190 -0.000001 0.000001 -0.000000 -19.520754 3.090941 -14.887415 0.000000 0.000000 0.000000 13.533066 12.286153 -45.847348 67.504720 -25.443298 27.159211 -20.419569 21.822106 -2.446586 -0.950514 -7.516248 8.582052 2.566214 20.394938 -1.999381 0.967854 1.656715 2.727511 0.000002 -0.000001 -0.000003 13.329662 -0.994402 14.150519 -0.171346 0.301041 -27.637167 -0.156348 0.306295 -28.787738 -0.000003 0.000001 -0.000002 8.552600 -0.361250 2.552883 0.212476 0.648780 -26.433247 0.422930 0.205787 -40.888514 -0.000003 0.000000 -0.000002 6.149229 3.112651 -12.744915 0.046340 0.299212 -26.657045 0.373701 0.819833 -38.671810 0.000004 0.000000 -0.000000 -5.620590 7.690173 -10.412287 0.211239 0.265079 -43.119848 0.245153 0.240669 -42.818347 0.000000 -0.000001 -0.000001 -19.127499 2.546781 17.483032 0.000000 0.000000 0.000000 8.238800 -0.098707 58.067980 160.341751 133.889835 -158.935715 44.865467 -12.163797 -5.670167 0.606820 8.469558 -11.222014 -1.352352 -12.093396 3.793182 1.703552 -7.510280 -7.187306 -0.000000 0.000001 -0.000001 19.436750 11.170183 -17.752881 -0.122619 -0.318700 13.621592 -0.106682 -0.287199 18.842568 -0.000002 -0.000001 0.000001 4.393243 2.475369 -9.228075 0.325901 -0.443940 22.476232 0.441696 0.166434 34.631013 0.000003 -0.000000 0.000001 -6.967934 -10.659753 1.313149 0.113202 -0.059661 21.741940 0.407026 -0.467387 28.850931 -0.000002 -0.000001 -0.000002 -19.419179 -20.222360 1.578870 0.209903 -0.068460 32.430630 0.242664 -0.032940 32.057725 -0.000000 -0.000000 -0.000001 3.604039 2.859804 -2.006111 83.055695 -10.636155 -0.934392 25.836533 -4.875675 -26.456673 -0.513322 -0.349538 -0.436908 0.000000 0.000000 -0.000000 1.242855 9.864070 -5.763027 61.669115 10.890725 -13.734098 47.939045 8.073920 21.409817 12.783472 -3.628709 -3.351518 -0.000001 -0.000000 -0.000000 
